<svg width="3059" height="644" viewBox="0 0 3059 644" fill="none" xmlns="http://www.w3.org/2000/svg">
<path d="M261.5 327L518 1.32322e-05H5L261.5 327Z" fill="#FF4444"/>
<path d="M261 327L522 644H0L261 327Z" fill="#FF4444"/>
<mask id="path-3-outside-1_104_26" maskUnits="userSpaceOnUse" x="600" y="113" width="2039" height="431" fill="black">
<rect fill="white" x="600" y="113" width="2039" height="431"/>
<path d="M601.968 131.74H748.607C774.473 131.74 797.793 136.322 818.567 145.487C839.341 154.449 855.838 168.196 868.058 186.73C880.482 205.06 886.694 228.074 886.694 255.773C886.694 283.268 880.482 306.69 868.058 326.038C855.838 345.183 839.341 359.847 818.567 370.03C797.793 380.01 774.473 384.999 748.607 384.999H693.312V535H601.968V131.74ZM693.312 312.901H723.251C735.675 312.901 746.775 311.068 756.551 307.402C766.53 303.736 774.473 297.932 780.38 289.989C786.286 281.842 789.239 271.15 789.239 257.911C789.239 244.469 786.286 233.879 780.38 226.139C774.473 218.196 766.53 212.494 756.551 209.031C746.775 205.569 735.675 203.838 723.251 203.838H693.312V312.901ZM1012.38 535H919.506V284.184H1012.38V322.983H1010.85C1012.48 318.299 1016.45 312.392 1022.77 305.264C1029.08 297.932 1037.94 291.415 1049.34 285.712C1060.75 279.806 1074.7 276.852 1091.2 276.852C1102.81 276.852 1113.5 278.685 1123.27 282.351C1133.05 285.814 1140.18 289.174 1144.66 292.433L1108.61 367.891C1105.76 364.429 1100.67 360.865 1093.34 357.199C1086.21 353.329 1077.25 351.394 1066.45 351.394C1054.03 351.394 1043.74 354.551 1035.6 360.865C1027.65 367.179 1021.75 374.816 1017.88 383.777C1014.21 392.739 1012.38 401.191 1012.38 409.134V535ZM1237.07 429.297C1237.68 438.258 1240.53 446.201 1245.62 453.126C1250.71 460.051 1257.74 465.55 1266.7 469.623C1275.87 473.493 1286.66 475.427 1299.09 475.427C1310.9 475.427 1321.49 474.205 1330.86 471.761C1340.43 469.317 1348.68 466.262 1355.6 462.596C1362.73 458.93 1368.23 455.163 1372.1 451.293L1408.15 508.727C1403.06 514.226 1395.83 519.623 1386.46 524.919C1377.29 530.01 1365.17 534.185 1350.1 537.444C1335.03 540.703 1315.99 542.332 1292.98 542.332C1265.28 542.332 1240.63 537.138 1219.04 526.751C1197.46 516.364 1180.45 501.089 1168.03 480.926C1155.6 460.763 1149.39 436.12 1149.39 406.995C1149.39 382.555 1154.69 360.559 1165.28 341.007C1176.07 321.252 1191.65 305.671 1212.02 294.266C1232.38 282.657 1256.93 276.852 1285.64 276.852C1312.93 276.852 1336.56 281.842 1356.52 291.822C1376.68 301.802 1392.16 316.669 1402.96 336.425C1413.95 355.977 1419.45 380.417 1419.45 409.745C1419.45 411.374 1419.35 414.633 1419.15 419.521C1419.15 424.409 1418.94 427.668 1418.54 429.297H1237.07ZM1332.08 380.723C1331.88 374.205 1330.14 367.79 1326.89 361.476C1323.63 354.959 1318.74 349.663 1312.22 345.59C1305.7 341.313 1297.35 339.174 1287.17 339.174C1276.99 339.174 1268.33 341.211 1261.2 345.284C1254.28 349.154 1248.98 354.246 1245.32 360.559C1241.65 366.873 1239.61 373.594 1239.21 380.723H1332.08ZM1574.98 542.332C1550.74 542.332 1529.66 536.426 1511.74 524.613C1493.82 512.597 1479.87 496.609 1469.89 476.649C1460.11 456.486 1455.22 434.185 1455.22 409.745C1455.22 385.305 1460.11 363.105 1469.89 343.146C1479.87 322.983 1493.82 306.893 1511.74 294.877C1529.66 282.861 1550.74 276.852 1574.98 276.852C1591.07 276.852 1605.33 279.398 1617.75 284.49C1630.17 289.378 1640.26 295.284 1647.99 302.209C1655.73 308.93 1660.42 315.142 1662.05 320.844V114.632H1754.92V535H1662.96V494.368C1659.09 501.904 1652.78 509.44 1644.02 516.975C1635.27 524.307 1624.98 530.316 1613.17 535C1601.36 539.888 1588.63 542.332 1574.98 542.332ZM1603.39 469.317C1614.59 469.317 1624.57 466.772 1633.33 461.68C1642.29 456.588 1649.32 449.562 1654.41 440.6C1659.5 431.435 1662.05 421.15 1662.05 409.745C1662.05 398.34 1659.5 388.156 1654.41 379.195C1649.32 370.03 1642.29 362.902 1633.33 357.81C1624.57 352.515 1614.59 349.867 1603.39 349.867C1592.6 349.867 1582.82 352.515 1574.06 357.81C1565.51 362.902 1558.69 370.03 1553.6 379.195C1548.71 388.156 1546.26 398.34 1546.26 409.745C1546.26 421.15 1548.71 431.435 1553.6 440.6C1558.69 449.562 1565.51 456.588 1574.06 461.68C1582.82 466.772 1592.6 469.317 1603.39 469.317ZM1809.05 131.74H1955.69C1981.56 131.74 2004.88 136.322 2025.65 145.487C2046.42 154.449 2062.92 168.196 2075.14 186.73C2087.56 205.06 2093.78 228.074 2093.78 255.773C2093.78 283.268 2087.56 306.69 2075.14 326.038C2062.92 345.183 2046.42 359.847 2025.65 370.03C2004.88 380.01 1981.56 384.999 1955.69 384.999H1900.4V535H1809.05V131.74ZM1900.4 312.901H1930.33C1942.76 312.901 1953.86 311.068 1963.63 307.402C1973.61 303.736 1981.56 297.932 1987.46 289.989C1993.37 281.842 1996.32 271.15 1996.32 257.911C1996.32 244.469 1993.37 233.879 1987.46 226.139C1981.56 218.196 1973.61 212.494 1963.63 209.031C1953.86 205.569 1942.76 203.838 1930.33 203.838H1900.4V312.901ZM2219.46 535H2126.59V284.184H2219.46V322.983H2217.93C2219.56 318.299 2223.53 312.392 2229.85 305.264C2236.16 297.932 2245.02 291.415 2256.43 285.712C2267.83 279.806 2281.78 276.852 2298.28 276.852C2309.89 276.852 2320.58 278.685 2330.36 282.351C2340.13 285.814 2347.26 289.174 2351.74 292.433L2315.69 367.891C2312.84 364.429 2307.75 360.865 2300.42 357.199C2293.29 353.329 2284.33 351.394 2273.53 351.394C2261.11 351.394 2250.83 354.551 2242.68 360.865C2234.74 367.179 2228.83 374.816 2224.96 383.777C2221.29 392.739 2219.46 401.191 2219.46 409.134V535ZM2497.92 542.332C2470.42 542.332 2445.98 536.731 2424.6 525.529C2403.42 514.124 2386.72 498.544 2374.5 478.788C2362.48 458.829 2356.47 436.018 2356.47 410.356C2356.47 384.694 2362.48 361.883 2374.5 341.924C2386.72 321.761 2403.42 305.875 2424.6 294.266C2445.98 282.657 2470.42 276.852 2497.92 276.852C2525.41 276.852 2549.65 282.657 2570.63 294.266C2591.61 305.875 2608 321.761 2619.81 341.924C2631.63 361.883 2637.53 384.694 2637.53 410.356C2637.53 436.018 2631.63 458.829 2619.81 478.788C2608 498.544 2591.61 514.124 2570.63 525.529C2549.65 536.731 2525.41 542.332 2497.92 542.332ZM2497.92 465.957C2508.51 465.957 2517.68 463.615 2525.41 458.93C2533.15 454.246 2539.16 447.627 2543.44 439.073C2547.72 430.519 2549.85 420.845 2549.85 410.05C2549.85 399.052 2547.72 389.276 2543.44 380.723C2539.16 372.168 2533.15 365.447 2525.41 360.559C2517.68 355.671 2508.51 353.227 2497.92 353.227C2487.33 353.227 2478.06 355.671 2470.12 360.559C2462.38 365.447 2456.27 372.168 2451.79 380.723C2447.51 389.276 2445.37 399.052 2445.37 410.05C2445.37 420.845 2447.51 430.519 2451.79 439.073C2456.27 447.627 2462.38 454.246 2470.12 458.93C2478.06 463.615 2487.33 465.957 2497.92 465.957Z"/>
</mask>
<path d="M601.968 131.74H748.607C774.473 131.74 797.793 136.322 818.567 145.487C839.341 154.449 855.838 168.196 868.058 186.73C880.482 205.06 886.694 228.074 886.694 255.773C886.694 283.268 880.482 306.69 868.058 326.038C855.838 345.183 839.341 359.847 818.567 370.03C797.793 380.01 774.473 384.999 748.607 384.999H693.312V535H601.968V131.74ZM693.312 312.901H723.251C735.675 312.901 746.775 311.068 756.551 307.402C766.53 303.736 774.473 297.932 780.38 289.989C786.286 281.842 789.239 271.15 789.239 257.911C789.239 244.469 786.286 233.879 780.38 226.139C774.473 218.196 766.53 212.494 756.551 209.031C746.775 205.569 735.675 203.838 723.251 203.838H693.312V312.901ZM1012.38 535H919.506V284.184H1012.38V322.983H1010.85C1012.48 318.299 1016.45 312.392 1022.77 305.264C1029.08 297.932 1037.94 291.415 1049.34 285.712C1060.75 279.806 1074.7 276.852 1091.2 276.852C1102.81 276.852 1113.5 278.685 1123.27 282.351C1133.05 285.814 1140.18 289.174 1144.66 292.433L1108.61 367.891C1105.76 364.429 1100.67 360.865 1093.34 357.199C1086.21 353.329 1077.25 351.394 1066.45 351.394C1054.03 351.394 1043.74 354.551 1035.6 360.865C1027.65 367.179 1021.75 374.816 1017.88 383.777C1014.21 392.739 1012.38 401.191 1012.38 409.134V535ZM1237.07 429.297C1237.68 438.258 1240.53 446.201 1245.62 453.126C1250.71 460.051 1257.74 465.55 1266.7 469.623C1275.87 473.493 1286.66 475.427 1299.09 475.427C1310.9 475.427 1321.49 474.205 1330.86 471.761C1340.43 469.317 1348.68 466.262 1355.6 462.596C1362.73 458.93 1368.23 455.163 1372.1 451.293L1408.15 508.727C1403.06 514.226 1395.83 519.623 1386.46 524.919C1377.29 530.01 1365.17 534.185 1350.1 537.444C1335.03 540.703 1315.99 542.332 1292.98 542.332C1265.28 542.332 1240.63 537.138 1219.04 526.751C1197.46 516.364 1180.45 501.089 1168.03 480.926C1155.6 460.763 1149.39 436.12 1149.39 406.995C1149.39 382.555 1154.69 360.559 1165.28 341.007C1176.07 321.252 1191.65 305.671 1212.02 294.266C1232.38 282.657 1256.93 276.852 1285.64 276.852C1312.93 276.852 1336.56 281.842 1356.52 291.822C1376.68 301.802 1392.16 316.669 1402.96 336.425C1413.95 355.977 1419.45 380.417 1419.45 409.745C1419.45 411.374 1419.35 414.633 1419.15 419.521C1419.15 424.409 1418.94 427.668 1418.54 429.297H1237.07ZM1332.08 380.723C1331.88 374.205 1330.14 367.79 1326.89 361.476C1323.63 354.959 1318.74 349.663 1312.22 345.59C1305.7 341.313 1297.35 339.174 1287.17 339.174C1276.99 339.174 1268.33 341.211 1261.2 345.284C1254.28 349.154 1248.98 354.246 1245.32 360.559C1241.65 366.873 1239.61 373.594 1239.21 380.723H1332.08ZM1574.98 542.332C1550.74 542.332 1529.66 536.426 1511.74 524.613C1493.82 512.597 1479.87 496.609 1469.89 476.649C1460.11 456.486 1455.22 434.185 1455.22 409.745C1455.22 385.305 1460.11 363.105 1469.89 343.146C1479.87 322.983 1493.82 306.893 1511.74 294.877C1529.66 282.861 1550.74 276.852 1574.98 276.852C1591.07 276.852 1605.33 279.398 1617.75 284.49C1630.17 289.378 1640.26 295.284 1647.99 302.209C1655.73 308.93 1660.42 315.142 1662.05 320.844V114.632H1754.92V535H1662.96V494.368C1659.09 501.904 1652.78 509.44 1644.02 516.975C1635.27 524.307 1624.98 530.316 1613.17 535C1601.36 539.888 1588.63 542.332 1574.98 542.332ZM1603.39 469.317C1614.59 469.317 1624.57 466.772 1633.33 461.68C1642.29 456.588 1649.32 449.562 1654.41 440.6C1659.5 431.435 1662.05 421.15 1662.05 409.745C1662.05 398.34 1659.5 388.156 1654.41 379.195C1649.32 370.03 1642.29 362.902 1633.33 357.81C1624.57 352.515 1614.59 349.867 1603.39 349.867C1592.6 349.867 1582.82 352.515 1574.06 357.81C1565.51 362.902 1558.69 370.03 1553.6 379.195C1548.71 388.156 1546.26 398.34 1546.26 409.745C1546.26 421.15 1548.71 431.435 1553.6 440.6C1558.69 449.562 1565.51 456.588 1574.06 461.68C1582.82 466.772 1592.6 469.317 1603.39 469.317ZM1809.05 131.74H1955.69C1981.56 131.74 2004.88 136.322 2025.65 145.487C2046.42 154.449 2062.92 168.196 2075.14 186.73C2087.56 205.06 2093.78 228.074 2093.78 255.773C2093.78 283.268 2087.56 306.69 2075.14 326.038C2062.92 345.183 2046.42 359.847 2025.65 370.03C2004.88 380.01 1981.56 384.999 1955.69 384.999H1900.4V535H1809.05V131.74ZM1900.4 312.901H1930.33C1942.76 312.901 1953.86 311.068 1963.63 307.402C1973.61 303.736 1981.56 297.932 1987.46 289.989C1993.37 281.842 1996.32 271.15 1996.32 257.911C1996.32 244.469 1993.37 233.879 1987.46 226.139C1981.56 218.196 1973.61 212.494 1963.63 209.031C1953.86 205.569 1942.76 203.838 1930.33 203.838H1900.4V312.901ZM2219.46 535H2126.59V284.184H2219.46V322.983H2217.93C2219.56 318.299 2223.53 312.392 2229.85 305.264C2236.16 297.932 2245.02 291.415 2256.43 285.712C2267.83 279.806 2281.78 276.852 2298.28 276.852C2309.89 276.852 2320.58 278.685 2330.36 282.351C2340.13 285.814 2347.26 289.174 2351.74 292.433L2315.69 367.891C2312.84 364.429 2307.75 360.865 2300.42 357.199C2293.29 353.329 2284.33 351.394 2273.53 351.394C2261.11 351.394 2250.83 354.551 2242.68 360.865C2234.74 367.179 2228.83 374.816 2224.96 383.777C2221.29 392.739 2219.46 401.191 2219.46 409.134V535ZM2497.92 542.332C2470.42 542.332 2445.98 536.731 2424.6 525.529C2403.42 514.124 2386.72 498.544 2374.5 478.788C2362.48 458.829 2356.47 436.018 2356.47 410.356C2356.47 384.694 2362.48 361.883 2374.5 341.924C2386.72 321.761 2403.42 305.875 2424.6 294.266C2445.98 282.657 2470.42 276.852 2497.92 276.852C2525.41 276.852 2549.65 282.657 2570.63 294.266C2591.61 305.875 2608 321.761 2619.81 341.924C2631.63 361.883 2637.53 384.694 2637.53 410.356C2637.53 436.018 2631.63 458.829 2619.81 478.788C2608 498.544 2591.61 514.124 2570.63 525.529C2549.65 536.731 2525.41 542.332 2497.92 542.332ZM2497.92 465.957C2508.51 465.957 2517.68 463.615 2525.41 458.93C2533.15 454.246 2539.16 447.627 2543.44 439.073C2547.72 430.519 2549.85 420.845 2549.85 410.05C2549.85 399.052 2547.72 389.276 2543.44 380.723C2539.16 372.168 2533.15 365.447 2525.41 360.559C2517.68 355.671 2508.51 353.227 2497.92 353.227C2487.33 353.227 2478.06 355.671 2470.12 360.559C2462.38 365.447 2456.27 372.168 2451.79 380.723C2447.51 389.276 2445.37 399.052 2445.37 410.05C2445.37 420.845 2447.51 430.519 2451.79 439.073C2456.27 447.627 2462.38 454.246 2470.12 458.93C2478.06 463.615 2487.33 465.957 2497.92 465.957Z" fill="black"/>
<path d="M601.968 131.74H748.607C774.473 131.74 797.793 136.322 818.567 145.487C839.341 154.449 855.838 168.196 868.058 186.73C880.482 205.06 886.694 228.074 886.694 255.773C886.694 283.268 880.482 306.69 868.058 326.038C855.838 345.183 839.341 359.847 818.567 370.03C797.793 380.01 774.473 384.999 748.607 384.999H693.312V535H601.968V131.74ZM693.312 312.901H723.251C735.675 312.901 746.775 311.068 756.551 307.402C766.53 303.736 774.473 297.932 780.38 289.989C786.286 281.842 789.239 271.15 789.239 257.911C789.239 244.469 786.286 233.879 780.38 226.139C774.473 218.196 766.53 212.494 756.551 209.031C746.775 205.569 735.675 203.838 723.251 203.838H693.312V312.901ZM1012.38 535H919.506V284.184H1012.38V322.983H1010.85C1012.48 318.299 1016.45 312.392 1022.77 305.264C1029.08 297.932 1037.94 291.415 1049.34 285.712C1060.75 279.806 1074.7 276.852 1091.2 276.852C1102.81 276.852 1113.5 278.685 1123.27 282.351C1133.05 285.814 1140.18 289.174 1144.66 292.433L1108.61 367.891C1105.76 364.429 1100.67 360.865 1093.34 357.199C1086.21 353.329 1077.25 351.394 1066.45 351.394C1054.03 351.394 1043.74 354.551 1035.6 360.865C1027.65 367.179 1021.75 374.816 1017.88 383.777C1014.21 392.739 1012.38 401.191 1012.38 409.134V535ZM1237.07 429.297C1237.68 438.258 1240.53 446.201 1245.62 453.126C1250.71 460.051 1257.74 465.55 1266.7 469.623C1275.87 473.493 1286.66 475.427 1299.09 475.427C1310.9 475.427 1321.49 474.205 1330.86 471.761C1340.43 469.317 1348.68 466.262 1355.6 462.596C1362.73 458.93 1368.23 455.163 1372.1 451.293L1408.15 508.727C1403.06 514.226 1395.83 519.623 1386.46 524.919C1377.29 530.01 1365.17 534.185 1350.1 537.444C1335.03 540.703 1315.99 542.332 1292.98 542.332C1265.28 542.332 1240.63 537.138 1219.04 526.751C1197.46 516.364 1180.45 501.089 1168.03 480.926C1155.6 460.763 1149.39 436.12 1149.39 406.995C1149.39 382.555 1154.69 360.559 1165.28 341.007C1176.07 321.252 1191.65 305.671 1212.02 294.266C1232.38 282.657 1256.93 276.852 1285.64 276.852C1312.93 276.852 1336.56 281.842 1356.52 291.822C1376.68 301.802 1392.16 316.669 1402.96 336.425C1413.95 355.977 1419.45 380.417 1419.45 409.745C1419.45 411.374 1419.35 414.633 1419.15 419.521C1419.15 424.409 1418.94 427.668 1418.54 429.297H1237.07ZM1332.08 380.723C1331.88 374.205 1330.14 367.79 1326.89 361.476C1323.63 354.959 1318.74 349.663 1312.22 345.59C1305.7 341.313 1297.35 339.174 1287.17 339.174C1276.99 339.174 1268.33 341.211 1261.2 345.284C1254.28 349.154 1248.98 354.246 1245.32 360.559C1241.65 366.873 1239.61 373.594 1239.21 380.723H1332.08ZM1574.98 542.332C1550.74 542.332 1529.66 536.426 1511.74 524.613C1493.82 512.597 1479.87 496.609 1469.89 476.649C1460.11 456.486 1455.22 434.185 1455.22 409.745C1455.22 385.305 1460.11 363.105 1469.89 343.146C1479.87 322.983 1493.82 306.893 1511.74 294.877C1529.66 282.861 1550.74 276.852 1574.98 276.852C1591.07 276.852 1605.33 279.398 1617.75 284.49C1630.17 289.378 1640.26 295.284 1647.99 302.209C1655.73 308.93 1660.42 315.142 1662.05 320.844V114.632H1754.92V535H1662.96V494.368C1659.09 501.904 1652.78 509.44 1644.02 516.975C1635.27 524.307 1624.98 530.316 1613.17 535C1601.36 539.888 1588.63 542.332 1574.98 542.332ZM1603.39 469.317C1614.59 469.317 1624.57 466.772 1633.33 461.68C1642.29 456.588 1649.32 449.562 1654.41 440.6C1659.5 431.435 1662.05 421.15 1662.05 409.745C1662.05 398.34 1659.5 388.156 1654.41 379.195C1649.32 370.03 1642.29 362.902 1633.33 357.81C1624.57 352.515 1614.59 349.867 1603.39 349.867C1592.6 349.867 1582.82 352.515 1574.06 357.81C1565.51 362.902 1558.69 370.03 1553.6 379.195C1548.71 388.156 1546.26 398.34 1546.26 409.745C1546.26 421.15 1548.71 431.435 1553.6 440.6C1558.69 449.562 1565.51 456.588 1574.06 461.68C1582.82 466.772 1592.6 469.317 1603.39 469.317ZM1809.05 131.74H1955.69C1981.56 131.74 2004.88 136.322 2025.65 145.487C2046.42 154.449 2062.92 168.196 2075.14 186.73C2087.56 205.06 2093.78 228.074 2093.78 255.773C2093.78 283.268 2087.56 306.69 2075.14 326.038C2062.92 345.183 2046.42 359.847 2025.65 370.03C2004.88 380.01 1981.56 384.999 1955.69 384.999H1900.4V535H1809.05V131.74ZM1900.4 312.901H1930.33C1942.76 312.901 1953.86 311.068 1963.63 307.402C1973.61 303.736 1981.56 297.932 1987.46 289.989C1993.37 281.842 1996.32 271.15 1996.32 257.911C1996.32 244.469 1993.37 233.879 1987.46 226.139C1981.56 218.196 1973.61 212.494 1963.63 209.031C1953.86 205.569 1942.76 203.838 1930.33 203.838H1900.4V312.901ZM2219.46 535H2126.59V284.184H2219.46V322.983H2217.93C2219.56 318.299 2223.53 312.392 2229.85 305.264C2236.16 297.932 2245.02 291.415 2256.43 285.712C2267.83 279.806 2281.78 276.852 2298.28 276.852C2309.89 276.852 2320.58 278.685 2330.36 282.351C2340.13 285.814 2347.26 289.174 2351.74 292.433L2315.69 367.891C2312.84 364.429 2307.75 360.865 2300.42 357.199C2293.29 353.329 2284.33 351.394 2273.53 351.394C2261.11 351.394 2250.83 354.551 2242.68 360.865C2234.74 367.179 2228.83 374.816 2224.96 383.777C2221.29 392.739 2219.46 401.191 2219.46 409.134V535ZM2497.92 542.332C2470.42 542.332 2445.98 536.731 2424.6 525.529C2403.42 514.124 2386.72 498.544 2374.5 478.788C2362.48 458.829 2356.47 436.018 2356.47 410.356C2356.47 384.694 2362.48 361.883 2374.5 341.924C2386.72 321.761 2403.42 305.875 2424.6 294.266C2445.98 282.657 2470.42 276.852 2497.92 276.852C2525.41 276.852 2549.65 282.657 2570.63 294.266C2591.61 305.875 2608 321.761 2619.81 341.924C2631.63 361.883 2637.53 384.694 2637.53 410.356C2637.53 436.018 2631.63 458.829 2619.81 478.788C2608 498.544 2591.61 514.124 2570.63 525.529C2549.65 536.731 2525.41 542.332 2497.92 542.332ZM2497.92 465.957C2508.51 465.957 2517.68 463.615 2525.41 458.93C2533.15 454.246 2539.16 447.627 2543.44 439.073C2547.72 430.519 2549.85 420.845 2549.85 410.05C2549.85 399.052 2547.72 389.276 2543.44 380.723C2539.16 372.168 2533.15 365.447 2525.41 360.559C2517.68 355.671 2508.51 353.227 2497.92 353.227C2487.33 353.227 2478.06 355.671 2470.12 360.559C2462.38 365.447 2456.27 372.168 2451.79 380.723C2447.51 389.276 2445.37 399.052 2445.37 410.05C2445.37 420.845 2447.51 430.519 2451.79 439.073C2456.27 447.627 2462.38 454.246 2470.12 458.93C2478.06 463.615 2487.33 465.957 2497.92 465.957Z" fill="black" fill-opacity="0.2"/>
<path d="M601.968 131.74V130.74H600.968V131.74H601.968ZM818.567 145.487L818.163 146.402L818.171 146.406L818.567 145.487ZM868.058 186.73L867.223 187.28L867.23 187.291L868.058 186.73ZM868.058 326.038L867.217 325.498L867.215 325.5L868.058 326.038ZM818.567 370.03L819 370.931L819.007 370.928L818.567 370.03ZM693.312 384.999V383.999H692.312V384.999H693.312ZM693.312 535V536H694.312V535H693.312ZM601.968 535H600.968V536H601.968V535ZM693.312 312.901H692.312V313.901H693.312V312.901ZM756.551 307.402L756.206 306.464L756.199 306.466L756.551 307.402ZM780.38 289.989L781.182 290.586L781.189 290.576L780.38 289.989ZM780.38 226.139L779.577 226.736L779.585 226.746L780.38 226.139ZM756.551 209.031L756.217 209.974L756.223 209.976L756.551 209.031ZM693.312 203.838V202.838H692.312V203.838H693.312ZM601.968 132.74H748.607V130.74H601.968V132.74ZM748.607 132.74C774.353 132.74 797.533 137.301 818.163 146.402L818.971 144.573C798.053 135.344 774.593 130.74 748.607 130.74V132.74ZM818.171 146.406C838.77 155.291 855.113 168.913 867.223 187.28L868.893 186.18C856.563 167.48 839.912 153.606 818.963 144.569L818.171 146.406ZM867.23 187.291C879.516 205.418 885.694 228.224 885.694 255.773H887.694C887.694 227.925 881.447 204.702 868.886 186.169L867.23 187.291ZM885.694 255.773C885.694 283.114 879.518 306.34 867.217 325.498L868.899 326.578C881.445 307.04 887.694 283.422 887.694 255.773H885.694ZM867.215 325.5C855.096 344.487 838.739 359.028 818.127 369.132L819.007 370.928C839.943 360.665 856.58 345.878 868.901 326.576L867.215 325.5ZM818.134 369.129C797.511 379.036 774.342 383.999 748.607 383.999V385.999C774.605 385.999 798.075 380.984 819 370.931L818.134 369.129ZM748.607 383.999H693.312V385.999H748.607V383.999ZM692.312 384.999V535H694.312V384.999H692.312ZM693.312 534H601.968V536H693.312V534ZM602.968 535V131.74H600.968V535H602.968ZM693.312 313.901H723.251V311.901H693.312V313.901ZM723.251 313.901C735.772 313.901 746.994 312.054 756.902 308.339L756.199 306.466C746.555 310.083 735.577 311.901 723.251 311.901V313.901ZM756.895 308.341C767.043 304.613 775.151 298.696 781.182 290.586L779.577 289.392C773.795 297.168 766.017 302.86 756.206 306.464L756.895 308.341ZM781.189 290.576C787.253 282.212 790.239 271.295 790.239 257.911H788.239C788.239 271.005 785.319 281.473 779.57 289.402L781.189 290.576ZM790.239 257.911C790.239 244.332 787.256 233.502 781.174 225.533L779.585 226.746C785.315 234.256 788.239 244.607 788.239 257.911H790.239ZM781.182 225.543C775.148 217.428 767.034 211.61 756.878 208.087L756.223 209.976C766.026 213.377 773.799 218.965 779.577 226.736L781.182 225.543ZM756.884 208.089C746.982 204.582 735.767 202.838 723.251 202.838V204.838C735.583 204.838 746.567 206.556 756.217 209.974L756.884 208.089ZM723.251 202.838H693.312V204.838H723.251V202.838ZM692.312 203.838V312.901H694.312V203.838H692.312ZM1012.38 535V536H1013.38V535H1012.38ZM919.506 535H918.506V536H919.506V535ZM919.506 284.184V283.184H918.506V284.184H919.506ZM1012.38 284.184H1013.38V283.184H1012.38V284.184ZM1012.38 322.983V323.983H1013.38V322.983H1012.38ZM1010.85 322.983L1009.91 322.654L1009.44 323.983H1010.85V322.983ZM1022.77 305.264L1023.51 305.927L1023.52 305.917L1022.77 305.264ZM1049.34 285.712L1049.79 286.606L1049.8 286.603L1049.8 286.6L1049.34 285.712ZM1123.27 282.351L1122.92 283.288L1122.93 283.291L1122.94 283.294L1123.27 282.351ZM1144.66 292.433L1145.56 292.864L1145.92 292.114L1145.25 291.624L1144.66 292.433ZM1108.61 367.891L1107.84 368.527L1108.84 369.739L1109.51 368.323L1108.61 367.891ZM1093.34 357.199L1092.86 358.078L1092.87 358.086L1092.89 358.093L1093.34 357.199ZM1035.6 360.865L1034.98 360.075L1034.97 360.082L1035.6 360.865ZM1017.88 383.777L1016.96 383.381L1016.96 383.39L1016.95 383.399L1017.88 383.777ZM1012.38 534H919.506V536H1012.38V534ZM920.506 535V284.184H918.506V535H920.506ZM919.506 285.184H1012.38V283.184H919.506V285.184ZM1011.38 284.184V322.983H1013.38V284.184H1011.38ZM1012.38 321.983H1010.85V323.983H1012.38V321.983ZM1011.8 323.312C1013.36 318.818 1017.22 313.031 1023.51 305.927L1022.02 304.601C1015.68 311.754 1011.6 317.78 1009.91 322.654L1011.8 323.312ZM1023.52 305.917C1029.73 298.711 1038.47 292.268 1049.79 286.606L1048.9 284.818C1037.41 290.562 1028.43 297.153 1022.01 304.611L1023.52 305.917ZM1049.8 286.6C1061.03 280.785 1074.82 277.852 1091.2 277.852V275.852C1074.58 275.852 1060.47 278.826 1048.88 284.824L1049.8 286.6ZM1091.2 277.852C1102.7 277.852 1113.27 279.668 1122.92 283.288L1123.63 281.415C1113.73 277.703 1102.91 275.852 1091.2 275.852V277.852ZM1122.94 283.294C1132.69 286.747 1139.71 290.069 1144.07 293.242L1145.25 291.624C1140.65 288.279 1133.41 284.881 1123.61 281.409L1122.94 283.294ZM1143.76 292.002L1107.71 367.46L1109.51 368.323L1145.56 292.864L1143.76 292.002ZM1109.38 367.256C1106.4 363.63 1101.15 359.99 1093.78 356.305L1092.89 358.093C1100.18 361.74 1105.12 365.229 1107.84 368.527L1109.38 367.256ZM1093.81 356.32C1086.5 352.349 1077.36 350.394 1066.45 350.394V352.394C1077.13 352.394 1085.92 354.31 1092.86 358.078L1093.81 356.32ZM1066.45 350.394C1053.85 350.394 1043.34 353.599 1034.98 360.075L1036.21 361.655C1044.15 355.504 1054.2 352.394 1066.45 352.394V350.394ZM1034.97 360.082C1026.91 366.494 1020.9 374.262 1016.96 383.381L1018.8 384.174C1022.6 375.37 1028.4 367.863 1036.22 361.648L1034.97 360.082ZM1016.95 383.399C1013.25 392.455 1011.38 401.036 1011.38 409.134H1013.38C1013.38 401.346 1015.18 393.023 1018.8 384.156L1016.95 383.399ZM1011.38 409.134V535H1013.38V409.134H1011.38ZM1237.07 429.297V428.297H1236L1236.07 429.365L1237.07 429.297ZM1245.62 453.126L1244.82 453.718L1244.82 453.718L1245.62 453.126ZM1266.7 469.623L1266.29 470.533L1266.3 470.539L1266.31 470.544L1266.7 469.623ZM1330.86 471.761L1330.61 470.793L1330.6 470.794L1330.86 471.761ZM1355.6 462.596L1355.15 461.707L1355.13 461.713L1355.6 462.596ZM1372.1 451.293L1372.95 450.761L1372.28 449.699L1371.39 450.586L1372.1 451.293ZM1408.15 508.727L1408.88 509.406L1409.4 508.844L1409 508.195L1408.15 508.727ZM1386.46 524.919L1386.94 525.793L1386.95 525.789L1386.46 524.919ZM1350.1 537.444L1350.31 538.421L1350.1 537.444ZM1168.03 480.926L1167.17 481.451L1167.17 481.451L1168.03 480.926ZM1165.28 341.007L1164.4 340.528L1164.4 340.531L1165.28 341.007ZM1212.02 294.266L1212.51 295.139L1212.51 295.135L1212.02 294.266ZM1356.52 291.822L1356.07 292.716L1356.08 292.718L1356.52 291.822ZM1402.96 336.425L1402.08 336.905L1402.08 336.915L1402.96 336.425ZM1419.15 419.521L1418.15 419.479L1418.15 419.5V419.521H1419.15ZM1418.54 429.297V430.297H1419.32L1419.51 429.54L1418.54 429.297ZM1332.08 380.723V381.723H1333.11L1333.08 380.691L1332.08 380.723ZM1326.89 361.476L1325.99 361.923L1326 361.935L1326.89 361.476ZM1312.22 345.59L1311.67 346.426L1311.68 346.432L1311.69 346.438L1312.22 345.59ZM1261.2 345.284L1261.69 346.157L1261.7 346.153L1261.2 345.284ZM1239.21 380.723L1238.21 380.665L1238.15 381.723H1239.21V380.723ZM1236.07 429.365C1236.69 438.507 1239.61 446.634 1244.82 453.718L1246.43 452.534C1241.45 445.769 1238.66 438.01 1238.07 429.229L1236.07 429.365ZM1244.82 453.718C1250.02 460.8 1257.19 466.4 1266.29 470.533L1267.12 468.713C1258.29 464.7 1251.4 459.302 1246.43 452.534L1244.82 453.718ZM1266.31 470.544C1275.63 474.477 1286.56 476.427 1299.09 476.427V474.427C1286.76 474.427 1276.11 472.508 1267.09 468.702L1266.31 470.544ZM1299.09 476.427C1310.96 476.427 1321.64 475.199 1331.11 472.729L1330.6 470.794C1321.33 473.212 1310.83 474.427 1299.09 474.427V476.427ZM1331.1 472.73C1340.73 470.272 1349.06 467.191 1356.07 463.48L1355.13 461.713C1348.3 465.334 1340.12 468.363 1330.61 470.793L1331.1 472.73ZM1356.06 463.486C1363.24 459.792 1368.84 455.969 1372.81 452L1371.39 450.586C1367.62 454.357 1362.22 458.069 1355.15 461.707L1356.06 463.486ZM1371.25 451.825L1407.3 509.259L1409 508.195L1372.95 450.761L1371.25 451.825ZM1407.41 508.048C1402.42 513.446 1395.28 518.783 1385.97 524.048L1386.95 525.789C1396.37 520.463 1403.7 515.006 1408.88 509.406L1407.41 508.048ZM1385.97 524.044C1376.92 529.072 1364.91 533.22 1349.89 536.467L1350.31 538.421C1365.44 535.151 1377.66 530.949 1386.94 525.793L1385.97 524.044ZM1349.89 536.467C1334.92 539.705 1315.95 541.332 1292.98 541.332V543.332C1316.03 543.332 1335.15 541.7 1350.31 538.421L1349.89 536.467ZM1292.98 541.332C1265.4 541.332 1240.91 536.163 1219.48 525.85L1218.61 527.653C1240.35 538.114 1265.15 543.332 1292.98 543.332V541.332ZM1219.48 525.85C1198.06 515.545 1181.2 500.4 1168.88 480.402L1167.17 481.451C1179.7 501.779 1196.85 517.184 1218.61 527.653L1219.48 525.85ZM1168.88 480.402C1156.57 460.429 1150.39 435.977 1150.39 406.995H1148.39C1148.39 436.263 1154.63 461.098 1167.17 481.451L1168.88 480.402ZM1150.39 406.995C1150.39 382.705 1155.65 360.875 1166.16 341.484L1164.4 340.531C1153.72 360.244 1148.39 382.406 1148.39 406.995H1150.39ZM1166.15 341.487C1176.85 321.903 1192.3 306.456 1212.51 295.138L1211.53 293.393C1191 304.887 1175.29 320.601 1164.4 340.528L1166.15 341.487ZM1212.51 295.135C1232.7 283.629 1257.06 277.852 1285.64 277.852V275.852C1256.79 275.852 1232.07 281.685 1211.52 293.397L1212.51 295.135ZM1285.64 277.852C1312.81 277.852 1336.28 282.82 1356.07 292.716L1356.97 290.928C1336.84 280.865 1313.06 275.852 1285.64 275.852V277.852ZM1356.08 292.718C1376.05 302.607 1391.38 317.329 1402.08 336.904L1403.83 335.946C1392.94 316.01 1377.31 300.997 1356.96 290.926L1356.08 292.718ZM1402.08 336.915C1412.98 356.278 1418.45 380.537 1418.45 409.745H1420.45C1420.45 380.297 1414.93 355.676 1403.83 335.935L1402.08 336.915ZM1418.45 409.745C1418.45 411.35 1418.35 414.588 1418.15 419.479L1420.15 419.563C1420.35 414.678 1420.45 411.399 1420.45 409.745H1418.45ZM1418.15 419.521C1418.15 424.428 1417.94 427.564 1417.57 429.054L1419.51 429.54C1419.95 427.772 1420.15 424.39 1420.15 419.521H1418.15ZM1418.54 428.297H1237.07V430.297H1418.54V428.297ZM1333.08 380.691C1332.87 374.012 1331.1 367.451 1327.77 361.017L1326 361.935C1329.19 368.128 1330.88 374.398 1331.08 380.754L1333.08 380.691ZM1327.78 361.029C1324.43 354.338 1319.42 348.907 1312.75 344.742L1311.69 346.438C1318.06 350.419 1322.82 355.58 1325.99 361.923L1327.78 361.029ZM1312.77 344.754C1306.05 340.342 1297.49 338.174 1287.17 338.174V340.174C1297.22 340.174 1305.36 342.284 1311.67 346.426L1312.77 344.754ZM1287.17 338.174C1276.85 338.174 1268.02 340.238 1260.71 344.416L1261.7 346.153C1268.64 342.184 1277.12 340.174 1287.17 340.174V338.174ZM1260.72 344.412C1253.65 348.361 1248.22 353.575 1244.45 360.057L1246.18 361.062C1249.75 354.916 1254.91 349.947 1261.69 346.157L1260.72 344.412ZM1244.45 360.057C1240.71 366.504 1238.63 373.377 1238.21 380.665L1240.21 380.78C1240.6 373.812 1242.59 367.243 1246.18 361.062L1244.45 360.057ZM1239.21 381.723H1332.08V379.723H1239.21V381.723ZM1511.74 524.613L1511.18 525.444L1511.19 525.448L1511.74 524.613ZM1469.89 476.649L1468.99 477.086L1468.99 477.097L1469.89 476.649ZM1469.89 343.146L1468.99 342.702L1468.99 342.706L1469.89 343.146ZM1511.74 294.877L1512.3 295.708L1512.3 295.708L1511.74 294.877ZM1617.75 284.49L1617.37 285.415L1617.38 285.421L1617.75 284.49ZM1647.99 302.209L1647.33 302.954L1647.33 302.959L1647.34 302.964L1647.99 302.209ZM1662.05 320.844L1661.09 321.119L1663.05 320.844H1662.05ZM1662.05 114.632V113.632H1661.05V114.632H1662.05ZM1754.92 114.632H1755.92V113.632H1754.92V114.632ZM1754.92 535V536H1755.92V535H1754.92ZM1662.96 535H1661.96V536H1662.96V535ZM1662.96 494.368H1663.96L1662.07 493.912L1662.96 494.368ZM1644.02 516.975L1644.67 517.742L1644.68 517.734L1644.02 516.975ZM1613.17 535L1612.8 534.07L1612.79 534.073L1612.79 534.076L1613.17 535ZM1633.33 461.68L1632.84 460.81L1632.83 460.815L1633.33 461.68ZM1654.41 440.6L1655.28 441.095L1655.28 441.086L1654.41 440.6ZM1654.41 379.195L1653.54 379.681L1653.54 379.689L1654.41 379.195ZM1633.33 357.81L1632.81 358.666L1632.82 358.673L1632.84 358.679L1633.33 357.81ZM1574.06 357.81L1574.58 358.669L1574.58 358.666L1574.06 357.81ZM1553.6 379.195L1552.72 378.709L1552.72 378.716L1553.6 379.195ZM1553.6 440.6L1552.71 441.071L1552.72 441.083L1552.73 441.095L1553.6 440.6ZM1574.06 461.68L1573.55 462.539L1573.56 462.545L1574.06 461.68ZM1574.98 541.332C1550.91 541.332 1530.03 535.47 1512.29 523.778L1511.19 525.448C1529.3 537.382 1550.57 543.332 1574.98 543.332V541.332ZM1512.3 523.782C1494.52 511.866 1480.69 496.012 1470.78 476.202L1468.99 477.097C1479.05 497.205 1493.11 513.327 1511.18 525.444L1512.3 523.782ZM1470.79 476.213C1461.08 456.198 1456.22 434.048 1456.22 409.745H1454.22C1454.22 434.322 1459.14 456.775 1468.99 477.086L1470.79 476.213ZM1456.22 409.745C1456.22 385.442 1461.08 363.395 1470.79 343.586L1468.99 342.706C1459.14 362.816 1454.22 385.168 1454.22 409.745H1456.22ZM1470.78 343.59C1480.69 323.576 1494.53 307.623 1512.3 295.708L1511.18 294.046C1493.11 306.164 1479.05 322.39 1468.99 342.702L1470.78 343.59ZM1512.3 295.708C1530.04 283.815 1550.92 277.852 1574.98 277.852V275.852C1550.57 275.852 1529.29 281.906 1511.18 294.046L1512.3 295.708ZM1574.98 277.852C1590.97 277.852 1605.09 280.382 1617.37 285.415L1618.13 283.565C1605.56 278.415 1591.17 275.852 1574.98 275.852V277.852ZM1617.38 285.421C1629.73 290.277 1639.7 296.128 1647.33 302.954L1648.66 301.464C1640.81 294.441 1630.62 288.479 1618.12 283.559L1617.38 285.421ZM1647.34 302.964C1655.03 309.64 1659.54 315.695 1661.09 321.119L1663.01 320.57C1661.3 314.589 1656.44 308.22 1648.65 301.454L1647.34 302.964ZM1663.05 320.844V114.632H1661.05V320.844H1663.05ZM1662.05 115.632H1754.92V113.632H1662.05V115.632ZM1753.92 114.632V535H1755.92V114.632H1753.92ZM1754.92 534H1662.96V536H1754.92V534ZM1663.96 535V494.368H1661.96V535H1663.96ZM1662.07 493.912C1658.28 501.299 1652.06 508.737 1643.37 516.217L1644.68 517.734C1653.5 510.142 1659.91 502.509 1663.85 494.825L1662.07 493.912ZM1643.38 516.209C1634.71 523.465 1624.52 529.421 1612.8 534.07L1613.54 535.93C1625.44 531.21 1635.82 525.15 1644.67 517.742L1643.38 516.209ZM1612.79 534.076C1601.1 538.911 1588.5 541.332 1574.98 541.332V543.332C1588.75 543.332 1601.61 540.865 1613.55 535.924L1612.79 534.076ZM1603.39 470.317C1614.75 470.317 1624.91 467.734 1633.83 462.545L1632.83 460.815C1624.24 465.809 1614.44 468.317 1603.39 468.317V470.317ZM1633.82 462.549C1642.94 457.369 1650.1 450.213 1655.28 441.095L1653.54 440.106C1648.54 448.911 1641.64 455.808 1632.84 460.811L1633.82 462.549ZM1655.28 441.086C1660.47 431.76 1663.05 421.305 1663.05 409.745H1661.05C1661.05 420.996 1658.54 431.111 1653.54 440.115L1655.28 441.086ZM1663.05 409.745C1663.05 398.185 1660.47 387.829 1655.28 378.701L1653.54 379.689C1658.54 388.484 1661.05 398.494 1661.05 409.745H1663.05ZM1655.28 378.709C1650.11 369.387 1642.95 362.124 1633.82 356.941L1632.84 358.679C1641.64 363.679 1648.53 370.673 1653.54 379.681L1655.28 378.709ZM1633.85 356.954C1624.92 351.556 1614.76 348.867 1603.39 348.867V350.867C1614.43 350.867 1624.23 353.474 1632.81 358.666L1633.85 356.954ZM1603.39 348.867C1592.43 348.867 1582.47 351.559 1573.55 356.954L1574.58 358.666C1583.17 353.47 1592.77 350.867 1603.39 350.867V348.867ZM1573.55 356.951C1564.84 362.138 1557.89 369.399 1552.72 378.709L1554.47 379.681C1559.48 370.661 1566.18 363.666 1574.58 358.669L1573.55 356.951ZM1552.72 378.716C1547.74 387.841 1545.26 398.192 1545.26 409.745H1547.26C1547.26 398.487 1549.67 388.472 1554.47 379.674L1552.72 378.716ZM1545.26 409.745C1545.26 421.298 1547.74 431.747 1552.71 441.071L1554.48 440.13C1549.67 431.124 1547.26 421.003 1547.26 409.745H1545.26ZM1552.73 441.095C1557.9 450.201 1564.84 457.356 1573.55 462.539L1574.58 460.821C1566.18 455.821 1559.47 448.923 1554.46 440.106L1552.73 441.095ZM1573.56 462.545C1582.48 467.731 1592.43 470.317 1603.39 470.317V468.317C1592.76 468.317 1583.16 465.813 1574.57 460.815L1573.56 462.545ZM1809.05 131.74V130.74H1808.05V131.74H1809.05ZM2025.65 145.487L2025.25 146.402L2025.25 146.406L2025.65 145.487ZM2075.14 186.73L2074.31 187.28L2074.31 187.291L2075.14 186.73ZM2075.14 326.038L2074.3 325.498L2074.3 325.5L2075.14 326.038ZM2025.65 370.03L2026.08 370.931L2026.09 370.928L2025.65 370.03ZM1900.4 384.999V383.999H1899.4V384.999H1900.4ZM1900.4 535V536H1901.4V535H1900.4ZM1809.05 535H1808.05V536H1809.05V535ZM1900.4 312.901H1899.4V313.901H1900.4V312.901ZM1963.63 307.402L1963.29 306.464L1963.28 306.466L1963.63 307.402ZM1987.46 289.989L1988.27 290.586L1988.27 290.576L1987.46 289.989ZM1987.46 226.139L1986.66 226.736L1986.67 226.746L1987.46 226.139ZM1963.63 209.031L1963.3 209.974L1963.31 209.976L1963.63 209.031ZM1900.4 203.838V202.838H1899.4V203.838H1900.4ZM1809.05 132.74H1955.69V130.74H1809.05V132.74ZM1955.69 132.74C1981.44 132.74 2004.62 137.301 2025.25 146.402L2026.05 144.573C2005.14 135.344 1981.68 130.74 1955.69 130.74V132.74ZM2025.25 146.406C2045.85 155.291 2062.2 168.913 2074.31 187.28L2075.98 186.18C2063.65 167.48 2047 153.606 2026.05 144.569L2025.25 146.406ZM2074.31 187.291C2086.6 205.418 2092.78 228.224 2092.78 255.773H2094.78C2094.78 227.925 2088.53 204.702 2075.97 186.169L2074.31 187.291ZM2092.78 255.773C2092.78 283.114 2086.6 306.34 2074.3 325.498L2075.98 326.578C2088.53 307.04 2094.78 283.422 2094.78 255.773H2092.78ZM2074.3 325.5C2062.18 344.487 2045.82 359.028 2025.21 369.132L2026.09 370.928C2047.03 360.665 2063.66 345.878 2075.98 326.576L2074.3 325.5ZM2025.22 369.129C2004.59 379.036 1981.42 383.999 1955.69 383.999V385.999C1981.69 385.999 2005.16 380.984 2026.08 370.931L2025.22 369.129ZM1955.69 383.999H1900.4V385.999H1955.69V383.999ZM1899.4 384.999V535H1901.4V384.999H1899.4ZM1900.4 534H1809.05V536H1900.4V534ZM1810.05 535V131.74H1808.05V535H1810.05ZM1900.4 313.901H1930.33V311.901H1900.4V313.901ZM1930.33 313.901C1942.86 313.901 1954.08 312.054 1963.98 308.339L1963.28 306.466C1953.64 310.083 1942.66 311.901 1930.33 311.901V313.901ZM1963.98 308.341C1974.13 304.613 1982.23 298.696 1988.26 290.586L1986.66 289.392C1980.88 297.168 1973.1 302.86 1963.29 306.464L1963.98 308.341ZM1988.27 290.576C1994.34 282.212 1997.32 271.295 1997.32 257.911H1995.32C1995.32 271.005 1992.4 281.473 1986.65 289.402L1988.27 290.576ZM1997.32 257.911C1997.32 244.332 1994.34 233.502 1988.26 225.533L1986.67 226.746C1992.4 234.256 1995.32 244.607 1995.32 257.911H1997.32ZM1988.26 225.543C1982.23 217.428 1974.12 211.61 1963.96 208.087L1963.31 209.976C1973.11 213.377 1980.88 218.965 1986.66 226.736L1988.26 225.543ZM1963.97 208.089C1954.07 204.582 1942.85 202.838 1930.33 202.838V204.838C1942.67 204.838 1953.65 206.556 1963.3 209.974L1963.97 208.089ZM1930.33 202.838H1900.4V204.838H1930.33V202.838ZM1899.4 203.838V312.901H1901.4V203.838H1899.4ZM2219.46 535V536H2220.46V535H2219.46ZM2126.59 535H2125.59V536H2126.59V535ZM2126.59 284.184V283.184H2125.59V284.184H2126.59ZM2219.46 284.184H2220.46V283.184H2219.46V284.184ZM2219.46 322.983V323.983H2220.46V322.983H2219.46ZM2217.93 322.983L2216.99 322.654L2216.53 323.983H2217.93V322.983ZM2229.85 305.264L2230.6 305.927L2230.61 305.917L2229.85 305.264ZM2256.43 285.712L2256.87 286.606L2256.88 286.603L2256.89 286.6L2256.43 285.712ZM2330.36 282.351L2330.01 283.288L2330.02 283.291L2330.02 283.294L2330.36 282.351ZM2351.74 292.433L2352.64 292.864L2353 292.114L2352.33 291.624L2351.74 292.433ZM2315.69 367.891L2314.92 368.527L2315.92 369.739L2316.6 368.323L2315.69 367.891ZM2300.42 357.199L2299.94 358.078L2299.96 358.086L2299.97 358.093L2300.42 357.199ZM2242.68 360.865L2242.07 360.075L2242.06 360.082L2242.68 360.865ZM2224.96 383.777L2224.04 383.381L2224.04 383.39L2224.03 383.399L2224.96 383.777ZM2219.46 534H2126.59V536H2219.46V534ZM2127.59 535V284.184H2125.59V535H2127.59ZM2126.59 285.184H2219.46V283.184H2126.59V285.184ZM2218.46 284.184V322.983H2220.46V284.184H2218.46ZM2219.46 321.983H2217.93V323.983H2219.46V321.983ZM2218.88 323.312C2220.44 318.818 2224.3 313.031 2230.6 305.927L2229.1 304.601C2222.76 311.754 2218.68 317.78 2216.99 322.654L2218.88 323.312ZM2230.61 305.917C2236.81 298.711 2245.55 292.268 2256.87 286.606L2255.98 284.818C2244.49 290.562 2235.51 297.153 2229.09 304.611L2230.61 305.917ZM2256.89 286.6C2268.12 280.785 2281.9 277.852 2298.28 277.852V275.852C2281.67 275.852 2267.55 278.826 2255.97 284.824L2256.89 286.6ZM2298.28 277.852C2309.78 277.852 2320.35 279.668 2330.01 283.288L2330.71 281.415C2320.81 277.703 2310 275.852 2298.28 275.852V277.852ZM2330.02 283.294C2339.77 286.747 2346.79 290.069 2351.15 293.242L2352.33 291.624C2347.73 288.279 2340.49 284.881 2330.69 281.409L2330.02 283.294ZM2350.84 292.002L2314.79 367.46L2316.6 368.323L2352.64 292.864L2350.84 292.002ZM2316.47 367.256C2313.48 363.63 2308.24 359.99 2300.87 356.305L2299.97 358.093C2307.26 361.74 2312.21 365.229 2314.92 368.527L2316.47 367.256ZM2300.9 356.32C2293.58 352.349 2284.44 350.394 2273.53 350.394V352.394C2284.22 352.394 2293 354.31 2299.94 358.078L2300.9 356.32ZM2273.53 350.394C2260.94 350.394 2250.42 353.599 2242.07 360.075L2243.29 361.655C2251.23 355.504 2261.29 352.394 2273.53 352.394V350.394ZM2242.06 360.082C2233.99 366.494 2227.98 374.262 2224.04 383.381L2225.88 384.174C2229.68 375.37 2235.48 367.863 2243.3 361.648L2242.06 360.082ZM2224.03 383.399C2220.33 392.455 2218.46 401.036 2218.46 409.134H2220.46C2220.46 401.346 2222.26 393.023 2225.89 384.156L2224.03 383.399ZM2218.46 409.134V535H2220.46V409.134H2218.46ZM2424.6 525.529L2424.13 526.41L2424.14 526.415L2424.6 525.529ZM2374.5 478.788L2373.64 479.304L2373.65 479.314L2374.5 478.788ZM2374.5 341.924L2373.64 341.406L2373.64 341.408L2374.5 341.924ZM2424.6 294.266L2424.12 293.387L2424.12 293.389L2424.6 294.266ZM2570.63 294.266L2571.11 293.391L2571.11 293.391L2570.63 294.266ZM2619.81 341.924L2618.95 342.429L2618.95 342.433L2619.81 341.924ZM2619.81 478.788L2620.67 479.301L2620.67 479.297L2619.81 478.788ZM2570.63 525.529L2571.1 526.412L2571.11 526.408L2570.63 525.529ZM2525.41 458.93L2524.9 458.075L2524.9 458.075L2525.41 458.93ZM2543.44 439.073L2542.54 438.626L2542.54 438.626L2543.44 439.073ZM2543.44 380.723L2542.54 381.17L2542.54 381.17L2543.44 380.723ZM2525.41 360.559L2524.88 361.405L2524.88 361.405L2525.41 360.559ZM2470.12 360.559L2469.59 359.708L2469.59 359.714L2470.12 360.559ZM2451.79 380.723L2450.9 380.258L2450.9 380.267L2450.89 380.275L2451.79 380.723ZM2451.79 439.073L2450.89 439.52L2450.9 439.529L2450.9 439.537L2451.79 439.073ZM2470.12 458.93L2469.6 459.786L2469.61 459.792L2470.12 458.93ZM2497.92 541.332C2470.56 541.332 2446.29 535.76 2425.06 524.644L2424.14 526.415C2445.68 537.702 2470.29 543.332 2497.92 543.332V541.332ZM2425.07 524.649C2404.04 513.324 2387.47 497.863 2375.35 478.262L2373.65 479.314C2385.96 499.224 2402.8 514.925 2424.13 526.41L2425.07 524.649ZM2375.35 478.272C2363.44 458.484 2357.47 435.855 2357.47 410.356H2355.47C2355.47 436.181 2361.52 459.173 2373.64 479.304L2375.35 478.272ZM2357.47 410.356C2357.47 384.857 2363.44 362.228 2375.35 342.44L2373.64 341.408C2361.52 361.539 2355.47 384.531 2355.47 410.356H2357.47ZM2375.35 342.442C2387.48 322.434 2404.05 306.67 2425.08 295.143L2424.12 293.389C2402.79 305.08 2385.96 321.088 2373.64 341.406L2375.35 342.442ZM2425.08 295.145C2446.3 283.625 2470.57 277.852 2497.92 277.852V275.852C2470.28 275.852 2445.67 281.689 2424.12 293.387L2425.08 295.145ZM2497.92 277.852C2525.27 277.852 2549.34 283.625 2570.14 295.141L2571.11 293.391C2549.97 281.689 2525.56 275.852 2497.92 275.852V277.852ZM2570.14 295.141C2590.97 306.665 2607.23 322.426 2618.95 342.429L2620.68 341.418C2608.77 321.096 2592.24 305.085 2571.11 293.391L2570.14 295.141ZM2618.95 342.433C2630.67 362.222 2636.53 384.854 2636.53 410.356H2638.53C2638.53 384.534 2632.59 361.544 2620.67 341.415L2618.95 342.433ZM2636.53 410.356C2636.53 435.858 2630.67 458.49 2618.95 478.279L2620.67 479.297C2632.59 459.168 2638.53 436.178 2638.53 410.356H2636.53ZM2618.96 478.275C2607.24 497.871 2590.98 513.328 2570.15 524.651L2571.11 526.408C2592.24 514.921 2608.76 499.216 2620.67 479.301L2618.96 478.275ZM2570.16 524.647C2549.35 535.76 2525.28 541.332 2497.92 541.332V543.332C2525.55 543.332 2549.96 537.702 2571.1 526.412L2570.16 524.647ZM2497.92 466.957C2508.66 466.957 2518.01 464.58 2525.93 459.786L2524.9 458.075C2517.34 462.65 2508.36 464.957 2497.92 464.957V466.957ZM2525.93 459.786C2533.84 454.998 2539.98 448.233 2544.33 439.52L2542.54 438.626C2538.35 447.021 2532.47 453.494 2524.9 458.075L2525.93 459.786ZM2544.33 439.52C2548.69 430.81 2550.85 420.98 2550.85 410.05H2548.85C2548.85 420.71 2546.74 430.228 2542.54 438.626L2544.33 439.52ZM2550.85 410.05C2550.85 398.921 2548.69 388.988 2544.33 380.275L2542.54 381.17C2546.74 389.565 2548.85 399.184 2548.85 410.05H2550.85ZM2544.33 380.275C2539.98 371.566 2533.85 364.704 2525.95 359.714L2524.88 361.405C2532.46 366.191 2538.35 372.771 2542.54 381.17L2544.33 380.275ZM2525.95 359.714C2518.03 354.71 2508.67 352.227 2497.92 352.227V354.227C2508.35 354.227 2517.32 356.633 2524.88 361.405L2525.95 359.714ZM2497.92 352.227C2487.17 352.227 2477.72 354.71 2469.6 359.708L2470.64 361.411C2478.41 356.633 2487.49 354.227 2497.92 354.227V352.227ZM2469.59 359.714C2461.69 364.701 2455.46 371.557 2450.9 380.258L2452.67 381.187C2457.08 372.78 2463.07 366.194 2470.65 361.405L2469.59 359.714ZM2450.89 380.275C2446.54 388.988 2444.37 398.921 2444.37 410.05H2446.37C2446.37 399.184 2448.49 389.565 2452.68 381.17L2450.89 380.275ZM2444.37 410.05C2444.37 420.98 2446.54 430.81 2450.89 439.52L2452.68 438.626C2448.48 430.228 2446.37 420.71 2446.37 410.05H2444.37ZM2450.9 439.537C2455.46 448.241 2461.7 455.001 2469.6 459.786L2470.64 458.075C2463.06 453.492 2457.08 447.013 2452.67 438.609L2450.9 439.537ZM2469.61 459.792C2477.73 464.58 2487.18 466.957 2497.92 466.957V464.957C2487.48 464.957 2478.39 462.65 2470.63 458.069L2469.61 459.792Z" fill="black" mask="url(#path-3-outside-1_104_26)"/>
</svg>
